# xmcd
#
# Track frame offsets: 
#        150
#        17422
#        32739
#        48707
#        65894
#        80200
#        99110
#        111492
#        126723
#        142857
#        157292
#        172207
#        183879
#        193691
#
# Disc length: 2790 seconds
#
# Revision: 0
# Processed by: cddbd v1.5.2PL0 Copyright (c) Steve Scherf et al.
# Submitted via: ExactAudioCopy v1.0b2
#
DISCID=d20ae40e
DTITLE=Various Artist - 14 Redneck Favorites
DYEAR=2007
DGENRE=Country
TTITLE0=Redneck Yacht Club
TTITLE1=Beer For My Horses
TTITLE2=Redneck Woman
TTITLE3=Honkeytonk Badonkadonk
TTITLE4=Dueling Banjos
TTITLE5=Man Of Constant Sorrow
TTITLE6=Rednecks, White Socks and Blue Ribbon Beer
TTITLE7=Achy Breaky Heart
TTITLE8=The Gambler
TTITLE9=Thank God I'm A Country Boy
TTITLE10=Boot Scootin' Boogie
TTITLE11=American Made
TTITLE12=Ragtime Cowboy Joe
TTITLE13=The Devil Went Down To Georgia
EXTD=
EXTT0=
EXTT1=
EXTT2=
EXTT3=
EXTT4=
EXTT5=
EXTT6=
EXTT7=
EXTT8=
EXTT9=
EXTT10=
EXTT11=
EXTT12=
EXTT13=
PLAYORDER=
